# xmcd
#
# Track frame offsets: 
#        150
#        18334
#        36062
#        51809
#        79724
#        112085
#        128124
#        148541
#        168133
#        194127
#        222668
#        239920
#        255342
#        286238
#        301040
#
# Disc length: 4237 seconds
#
# Revision: 1
# Processed by: cddbd v1.5.2PL0 Copyright (c) Steve Scherf et al.
# Submitted via: ExactAudioCopy v1.0b3
#
DISCID=d7108b0f
DTITLE=Various Artist - Was geht ab?! - Wir tanzen Deutsch Vol. 2 [CD
DTITLE=1)
DYEAR=2010
DGENRE=Pop
TTITLE0=Rockstroh - Tanzen (Radio Mix)
TTITLE1=Jürgen G-Punkt - Zauberstab (Radio Edit)
TTITLE2=O-Mind vs. Trash Boyz - Geile Kirsche (Radio Mix)
TTITLE3=MC Roby Rob - Wo geht die Party ab (Finger and Kadel Deutsch Rem
TTITLE3=ix)
TTITLE4=Dein Mikrokosmos - Regenschirm (Finger and Kadel Remix)
TTITLE5=Deine Jugend - Deine Jugend
TTITLE6=Hypnotic Grooves feat. Jo van Nelson - Der Erlkönig
TTITLE7=Jay Outback feat. Eve Lamel - Schockschwerenot (Calectro Remix
TTITLE7=)
TTITLE8=Cris Cosmo - Unik (Stereodudes Remix)
TTITLE9=Tinelavita - Komm her (Original Mix)
TTITLE10=Königwerq - Träum ich (Taste T Remix)
TTITLE11=Moritz and Der Zauber - Wo wohnt dein Haus? (Radio Version)
TTITLE12=Frank Styles - Report (F&K Original Mix)
TTITLE13=Rino - Die perfekte Nacht
TTITLE14=Electro Hype - Dreiklangdimensionen
EXTD=
EXTT0=
EXTT1=
EXTT2=
EXTT3=
EXTT4=
EXTT5=
EXTT6=
EXTT7=
EXTT8=
EXTT9=
EXTT10=
EXTT11=
EXTT12=
EXTT13=
EXTT14=
PLAYORDER=
